{
  "accessors": [
    {
      "bufferView": 2,
      "componentType": 5126,
      "count": 6583,
      "max": [
        3.0531771183013916,
        1.5155179500579834,
        4.458181858062744
      ],
      "min": [
        -1.6473629474639893,
        -1.934093952178955,
        0.016984999179840088
      ],
      "type": "VEC3"
    },
    {
      "bufferView": 2,
      "byteOffset": 78996,
      "componentType": 5126,
      "count": 6583,
      "max": [
        0.9974424839019775,
        0.9997764825820923,
        0.9993316531181335
      ],
      "min": [
        -0.9996113777160645,
        -0.9998554587364197,
        -0.9996907711029053
      ],
      "type": "VEC3"
    },
    {
      "bufferView": 1,
      "componentType": 5126,
      "count": 6583,
      "max": [
        0.99515300989151,
        0.9976990222930908
      ],
      "min": [
        0.0039059999398887157,
        0.0039059999398887157
      ],
      "type": "VEC2"
    },
    {
      "bufferView": 0,
      "componentType": 5125,
      "count": 29784,
      "type": "SCALAR"
    }
  ],
  "asset": {
    "extras": {
      "author": "wileyart (https://sketchfab.com/wileyart)",
      "license": "CC-BY-4.0 (http://creativecommons.org/licenses/by/4.0/)",
      "source": "https://sketchfab.com/3d-models/t-rex-3a08448119fb47d08e8a0cdd790db4b4",
      "title": "T-Rex"
    },
    "generator": "Sketchfab-12.65.0",
    "version": "2.0"
  },
  "bufferViews": [
    {
      "buffer": 0,
      "byteLength": 119136,
      "name": "floatBufferViews",
      "target": 34963
    },
    {
      "buffer": 0,
      "byteLength": 52664,
      "byteOffset": 119136,
      "byteStride": 8,
      "name": "floatBufferViews",
      "target": 34962
    },
    {
      "buffer": 0,
      "byteLength": 157992,
      "byteOffset": 171800,
      "byteStride": 12,
      "name": "floatBufferViews",
      "target": 34962
    }
  ],
  "buffers": [
    {
      "byteLength": 329792,
      "uri": "scene.bin"
    }
  ],
  "images": [
    {
      "uri": "textures/TrexLowPolyFixedTREX_lowPoly_baseColor.jpeg"
    }
  ],
  "materials": [
    {
      "name": "TrexLowPolyFixedTREX_lowPoly",
      "pbrMetallicRoughness": {
        "baseColorTexture": {
          "index": 0
        },
        "metallicFactor": 0.0,
        "roughnessFactor": 0.6
      }
    }
  ],
  "meshes": [
    {
      "name": "Object_0",
      "primitives": [
        {
          "attributes": {
            "NORMAL": 1,
            "POSITION": 0,
            "TEXCOORD_0": 2
          },
          "indices": 3,
          "material": 0,
          "mode": 4
        }
      ]
    }
  ],
  "nodes": [
    {
      "children": [
        1
      ],
      "matrix": [
        1.0,
        0.0,
        0.0,
        0.0,
        0.0,
        2.220446049250313e-16,
        -1.0,
        0.0,
        0.0,
        1.0,
        2.220446049250313e-16,
        0.0,
        0.0,
        0.0,
        0.0,
        1.0
      ],
      "name": "Sketchfab_model"
    },
    {
      "children": [
        2
      ],
      "name": "TrexLowPolyFixed2_smoothed23.obj.cleaner.gles"
    },
    {
      "mesh": 0,
      "name": "Object_2"
    }
  ],
  "samplers": [
    {
      "magFilter": 9729,
      "minFilter": 9987,
      "wrapS": 10497,
      "wrapT": 10497
    }
  ],
  "scene": 0,
  "scenes": [
    {
      "name": "Sketchfab_Scene",
      "nodes": [
        0
      ]
    }
  ],
  "textures": [
    {
      "sampler": 0,
      "source": 0
    }
  ]
}
